if (_typeface_js && _typeface_js.loadFace) _typeface_js.loadFace({"glyphs":{"S":{"x_min":63,"x_max":737,"ha":808,"o":"m 737 121 l 614 1 l 185 1 l 63 122 l 63 275 l 138 275 l 138 154 l 215 75 l 584 75 l 662 154 l 662 322 l 584 400 l 185 400 l 63 522 l 63 754 l 185 875 l 614 875 l 737 754 l 737 599 l 662 599 l 662 722 l 584 800 l 215 800 l 138 722 l 138 554 l 215 475 l 614 475 l 737 354 l 737 121 "},"¦":{"x_min":51,"x_max":107,"ha":174,"o":"m 107 964 l 107 461 l 51 461 l 51 964 l 107 964 m 107 202 l 107 -300 l 51 -300 l 51 202 l 107 202 "},"/":{"x_min":50,"x_max":550.046875,"ha":588,"o":"m 550 855 l 116 -13 l 50 20 l 483 889 l 550 855 "},"y":{"x_min":63,"x_max":538,"ha":617,"o":"m 538 -78 l 415 -199 l 63 -199 l 63 -124 l 385 -124 l 463 -46 l 463 1 l 185 1 l 63 121 l 63 575 l 138 575 l 138 154 l 215 75 l 463 75 l 463 575 l 538 575 l 538 -78 "},"Á":{"x_min":52,"x_max":727,"ha":813,"o":"m 127 475 l 652 475 l 652 722 l 574 800 l 204 800 l 127 722 l 127 475 m 652 400 l 127 400 l 127 1 l 52 1 l 52 754 l 174 875 l 604 875 l 727 754 l 727 1 l 652 1 l 652 400 m 430 1104 l 483 1049 l 330 897 l 278 949 l 430 1104 "},"g":{"x_min":63,"x_max":538,"ha":614,"o":"m 538 -78 l 415 -199 l 63 -199 l 63 -124 l 385 -124 l 463 -46 l 463 422 l 385 500 l 215 500 l 138 422 l 138 154 l 215 75 l 438 75 l 438 1 l 185 1 l 63 121 l 63 454 l 185 575 l 415 575 l 538 454 l 538 -78 "},"ë":{"x_min":60,"x_max":550.3125,"ha":622,"o":"m 550 137 l 412 1 l 182 1 l 60 121 l 60 454 l 182 575 l 412 575 l 535 454 l 535 322 l 412 200 l 160 200 l 160 275 l 382 275 l 460 354 l 460 422 l 382 500 l 212 500 l 135 422 l 135 154 l 212 75 l 382 75 l 497 191 l 550 137 m 417 875 q 468 853 448 875 q 491 801 489 832 q 469 749 491 770 q 417 728 448 728 q 365 748 386 728 q 344 801 344 769 q 364 852 342 832 q 417 875 386 873 m 177 875 q 228 853 208 875 q 251 801 249 832 q 229 749 251 770 q 177 728 208 728 q 125 748 146 728 q 104 801 104 769 q 124 852 102 832 q 177 875 145 873 "},"Î":{"x_min":-44.71875,"x_max":288.640625,"ha":211,"o":"m 152 1 l 77 1 l 77 875 l 152 875 l 152 1 m 55 1103 l 180 1103 l 288 943 l 233 907 l 117 1079 l 3 907 l -44 943 l 55 1103 "},"e":{"x_min":63,"x_max":553.3125,"ha":622,"o":"m 553 137 l 415 1 l 185 1 l 63 121 l 63 454 l 185 575 l 415 575 l 538 454 l 538 322 l 415 200 l 163 200 l 163 275 l 385 275 l 463 354 l 463 422 l 385 500 l 215 500 l 138 422 l 138 154 l 215 75 l 385 75 l 500 191 l 553 137 "},"Ã":{"x_min":52,"x_max":727,"ha":813,"o":"m 127 475 l 652 475 l 652 722 l 574 800 l 204 800 l 127 722 l 127 475 m 652 400 l 127 400 l 127 1 l 52 1 l 52 754 l 174 875 l 604 875 l 727 754 l 727 1 l 652 1 l 652 400 m 176 908 l 154 908 q 281 1083 158 1081 q 417 1026 330 1084 q 501 988 473 988 q 566 1083 549 988 l 587 1083 q 522 924 587 968 q 458 905 490 905 q 326 959 405 905 q 238 1001 265 1001 q 194 976 211 1001 q 176 908 188 966 "},"J":{"x_min":63,"x_max":738,"ha":814,"o":"m 738 121 l 615 1 l 185 1 l 63 122 l 63 275 l 138 275 l 138 154 l 215 75 l 585 75 l 663 154 l 663 875 l 738 875 l 738 121 "},"»":{"x_min":72.234375,"x_max":494.484375,"ha":536,"o":"m 419 422 l 277 487 l 277 571 l 494 463 l 494 381 l 277 269 l 277 355 l 419 422 m 213 422 l 72 487 l 72 571 l 288 463 l 288 381 l 72 269 l 72 355 l 213 422 "},"©":{"x_min":33.984375,"x_max":813,"ha":845,"o":"m 422 874 q 698 758 583 874 q 813 483 813 643 q 698 208 813 321 q 422 95 583 95 q 147 208 260 95 q 34 483 34 322 q 147 759 32 646 q 422 874 261 872 m 422 839 q 171 734 275 839 q 67 483 67 630 q 171 231 67 334 q 422 128 275 128 q 674 231 571 126 q 778 483 778 336 q 674 734 779 630 q 422 839 569 839 m 607 315 l 534 239 l 302 239 l 236 307 l 236 665 l 302 734 l 534 734 l 607 655 l 580 626 l 517 692 l 319 692 l 276 647 l 276 325 l 319 281 l 517 281 l 580 346 l 607 315 "},"ò":{"x_min":60,"x_max":535,"ha":613,"o":"m 535 121 l 412 1 l 182 1 l 60 121 l 60 454 l 182 575 l 412 575 l 535 454 l 535 121 m 460 154 l 460 422 l 382 500 l 212 500 l 135 422 l 135 154 l 212 75 l 382 75 l 460 154 m 398 756 l 344 704 l 193 856 l 244 911 l 398 756 "},"^":{"x_min":55.5625,"x_max":561.15625,"ha":649,"o":"m 561 437 l 508 385 l 308 585 l 108 385 l 55 437 l 308 692 l 561 437 "},"«":{"x_min":56.953125,"x_max":479.203125,"ha":519,"o":"m 131 419 l 273 352 l 273 269 l 56 376 l 56 458 l 273 571 l 273 484 l 131 419 m 337 419 l 479 352 l 479 269 l 262 376 l 262 458 l 479 571 l 479 484 l 337 419 "},"D":{"x_min":63,"x_max":738,"ha":813,"o":"m 738 121 l 615 1 l 63 1 l 63 875 l 615 875 l 738 754 l 738 121 m 663 154 l 663 722 l 585 800 l 138 800 l 138 75 l 585 75 l 663 154 "},"ÿ":{"x_min":52,"x_max":527,"ha":617,"o":"m 527 -78 l 404 -199 l 52 -199 l 52 -124 l 374 -124 l 452 -46 l 452 1 l 174 1 l 52 121 l 52 575 l 127 575 l 127 154 l 204 75 l 452 75 l 452 575 l 527 575 l 527 -78 m 409 875 q 460 853 440 875 q 483 801 481 832 q 461 749 483 770 q 409 728 440 728 q 357 748 378 728 q 336 801 336 769 q 356 852 334 832 q 409 875 378 873 m 169 875 q 220 853 200 875 q 243 801 241 832 q 221 749 243 770 q 169 728 200 728 q 117 748 138 728 q 96 801 96 769 q 116 852 94 832 q 169 875 137 873 "},"í":{"x_min":33.109375,"x_max":238.6875,"ha":215,"o":"m 142 1 l 67 1 l 67 575 l 142 575 l 142 1 m 185 907 l 238 852 l 85 700 l 33 752 l 185 907 "},"ˆ":{"x_min":40.28125,"x_max":373.640625,"ha":461,"o":"m 140 897 l 265 897 l 373 737 l 318 701 l 202 873 l 88 701 l 40 737 l 140 897 "},"w":{"x_min":63,"x_max":738,"ha":816,"o":"m 738 121 l 615 1 l 485 1 l 400 84 l 315 1 l 185 1 l 63 121 l 63 575 l 138 575 l 138 154 l 215 75 l 285 75 l 363 154 l 363 575 l 438 575 l 438 154 l 515 75 l 585 75 l 663 154 l 663 575 l 738 575 l 738 121 "},"$":{"x_min":63.703125,"x_max":469.296875,"ha":531,"o":"m 304 397 l 305 178 l 379 253 l 379 321 l 304 397 m 229 478 l 229 697 l 153 622 l 153 554 l 229 478 m 304 1 l 229 1 l 229 99 l 201 99 l 63 237 l 116 291 l 229 178 l 230 399 l 202 399 l 79 522 l 79 654 l 201 774 l 229 774 l 229 875 l 304 875 l 304 774 l 331 774 l 469 637 l 416 584 l 304 697 l 304 474 l 331 474 l 455 353 l 455 221 l 331 99 l 304 99 l 304 1 "},"\\":{"x_min":55.5625,"x_max":344.46875,"ha":406,"o":"m 344 1 l 272 1 l 55 875 l 127 875 l 344 1 "},"Ì":{"x_min":7.0625,"x_max":212.640625,"ha":211,"o":"m 142 1 l 67 1 l 67 875 l 142 875 l 142 1 m 212 945 l 158 893 l 7 1045 l 58 1100 l 212 945 "},"µ":{"x_min":0,"x_max":0,"ha":442},"Ç":{"x_min":60,"x_max":750.328125,"ha":850,"o":"m 750 137 l 612 1 l 182 1 l 60 121 l 60 754 l 182 875 l 612 875 l 750 737 l 697 684 l 582 800 l 212 800 l 135 722 l 135 154 l 212 75 l 582 75 l 697 191 l 750 137 m 416 39 l 456 39 l 423 -15 q 508 -113 506 -34 q 463 -202 508 -169 q 362 -236 419 -236 q 298 -232 337 -237 l 298 -203 q 332 -205 320 -205 q 387 -183 362 -205 q 414 -130 412 -162 q 359 -80 414 -81 q 341 -81 351 -80 l 416 39 "},"’":{"x_min":63,"x_max":138,"ha":138,"o":"m 138 600 l 63 600 l 63 875 l 138 875 l 138 600 "},"-":{"x_min":62.5,"x_max":337.53125,"ha":415,"o":"m 337 400 l 62 400 l 62 475 l 337 475 l 337 400 "},"Q":{"x_min":63,"x_max":738,"ha":813,"o":"m 438 75 l 585 75 l 663 154 l 663 722 l 585 800 l 215 800 l 138 722 l 138 154 l 215 75 l 363 75 l 363 175 l 438 175 l 438 75 m 438 -99 l 363 -99 l 363 1 l 185 1 l 63 121 l 63 754 l 185 875 l 615 875 l 738 754 l 738 121 l 615 1 l 438 1 l 438 -99 "},"M":{"x_min":63,"x_max":938,"ha":1013,"o":"m 538 1 l 463 1 l 463 722 l 385 800 l 215 800 l 138 722 l 138 1 l 63 1 l 63 754 l 185 875 l 415 875 l 500 791 l 585 875 l 815 875 l 938 754 l 938 1 l 863 1 l 863 722 l 785 800 l 615 800 l 538 722 l 538 1 "},"C":{"x_min":63,"x_max":753.328125,"ha":757,"o":"m 753 137 l 615 1 l 185 1 l 63 121 l 63 754 l 185 875 l 615 875 l 753 737 l 700 684 l 585 800 l 215 800 l 138 722 l 138 154 l 215 75 l 585 75 l 700 191 l 753 137 "},"œ":{"x_min":57,"x_max":949.921875,"ha":1028,"o":"m 495 87 l 408 1 l 179 1 l 57 121 l 57 454 l 179 575 l 408 575 l 495 488 l 583 575 l 812 575 l 936 454 l 936 322 l 812 200 l 561 200 l 561 275 l 783 275 l 861 354 l 861 422 l 783 500 l 612 500 l 536 422 l 536 154 l 612 75 l 783 75 l 898 191 l 949 137 l 812 1 l 583 1 l 495 87 m 457 154 l 457 422 l 379 500 l 208 500 l 132 422 l 132 154 l 208 75 l 379 75 l 457 154 "},"!":{"x_min":63,"x_max":138,"ha":211,"o":"m 138 199 l 63 199 l 63 875 l 138 875 l 138 199 m 138 1 l 63 1 l 63 174 l 138 174 l 138 1 "},"ç":{"x_min":63,"x_max":553.3125,"ha":610,"o":"m 553 137 l 415 1 l 185 1 l 63 121 l 63 454 l 185 575 l 415 575 l 553 437 l 500 384 l 385 500 l 215 500 l 138 422 l 138 154 l 215 75 l 385 75 l 500 191 l 553 137 m 289 11 l 329 11 l 296 -43 q 381 -141 379 -62 q 336 -230 381 -197 q 235 -264 292 -264 q 171 -260 210 -265 l 171 -231 q 205 -233 193 -233 q 260 -211 235 -233 q 287 -158 285 -190 q 232 -108 287 -109 q 214 -109 224 -108 l 289 11 "},"È":{"x_min":70,"x_max":745.046875,"ha":738,"o":"m 745 1 l 70 1 l 70 353 l 154 437 l 70 522 l 70 875 l 745 875 l 745 800 l 145 800 l 145 554 l 222 475 l 745 475 l 745 400 l 222 400 l 145 322 l 145 75 l 745 75 l 745 1 m 534 945 l 480 893 l 329 1045 l 380 1100 l 534 945 "},"X":{"x_min":63,"x_max":738,"ha":814,"o":"m 215 400 l 138 322 l 138 1 l 63 1 l 63 353 l 148 437 l 63 522 l 63 875 l 138 875 l 138 554 l 215 475 l 585 475 l 663 554 l 663 875 l 738 875 l 738 522 l 653 437 l 738 353 l 738 1 l 663 1 l 663 322 l 585 400 l 215 400 "},"ô":{"x_min":60,"x_max":535,"ha":613,"o":"m 535 121 l 412 1 l 182 1 l 60 121 l 60 454 l 182 575 l 412 575 l 535 454 l 535 121 m 460 154 l 460 422 l 382 500 l 212 500 l 135 422 l 135 154 l 212 75 l 382 75 l 460 154 m 226 901 l 351 901 l 459 741 l 404 705 l 288 877 l 174 705 l 126 741 l 226 901 "},"#":{"x_min":62.984375,"x_max":538.015625,"ha":610,"o":"m 238 375 l 363 375 l 363 500 l 238 500 l 238 375 m 538 300 l 438 300 l 438 200 l 363 200 l 363 300 l 238 300 l 238 200 l 163 200 l 163 300 l 62 300 l 62 375 l 163 375 l 163 500 l 62 500 l 62 575 l 163 575 l 163 675 l 238 675 l 238 575 l 363 575 l 363 675 l 438 675 l 438 575 l 538 575 l 538 500 l 438 500 l 438 375 l 538 375 l 538 300 "},"Ê":{"x_min":70,"x_max":745.046875,"ha":738,"o":"m 745 1 l 70 1 l 70 353 l 154 437 l 70 522 l 70 875 l 745 875 l 745 800 l 145 800 l 145 554 l 222 475 l 745 475 l 745 400 l 222 400 l 145 322 l 145 75 l 745 75 l 745 1 m 359 1098 l 484 1098 l 592 938 l 537 902 l 421 1074 l 307 902 l 259 938 l 359 1098 "},")":{"x_min":47.703125,"x_max":238,"ha":313,"o":"m 238 122 l 100 -15 l 47 39 l 163 154 l 163 722 l 47 837 l 100 892 l 238 754 l 238 122 "},"Å":{"x_min":52,"x_max":727,"ha":813,"o":"m 127 475 l 652 475 l 652 722 l 574 800 l 204 800 l 127 722 l 127 475 m 652 400 l 127 400 l 127 1 l 52 1 l 52 754 l 174 875 l 604 875 l 727 754 l 727 1 l 652 1 l 652 400 m 371 1098 q 471 1074 426 1099 q 528 995 528 1045 q 484 922 530 953 q 371 892 438 892 q 271 915 317 892 q 214 995 216 944 q 271 1074 214 1045 q 371 1098 316 1098 m 371 1061 q 307 1046 335 1061 q 271 994 273 1028 q 307 944 271 962 q 371 929 337 929 q 435 944 406 929 q 471 994 471 964 q 435 1046 471 1026 q 371 1061 406 1061 "},"ø":{"x_min":82,"x_max":557,"ha":613,"o":"m 557 121 l 434 1 l 204 1 l 82 121 l 82 454 l 204 575 l 434 575 l 557 454 l 557 121 m 482 154 l 482 422 l 404 500 l 234 500 l 157 422 l 157 154 l 234 75 l 404 75 l 482 154 m 504 596 l 183 -50 l 134 -25 l 455 621 l 504 596 "},"â":{"x_min":56.96875,"x_max":532,"ha":613,"o":"m 532 121 l 409 1 l 179 1 l 56 121 l 56 254 l 179 375 l 432 375 l 432 300 l 209 300 l 131 222 l 131 154 l 209 75 l 379 75 l 457 154 l 457 422 l 379 500 l 156 500 l 156 575 l 409 575 l 532 454 l 532 121 m 243 907 l 368 907 l 476 747 l 421 711 l 305 883 l 191 711 l 143 747 l 243 907 "},"}":{"x_min":86,"x_max":1878,"ha":1964,"o":"m 86 406 l 87 406 l 87 472 l 180 472 l 180 511 l 156 511 l 156 633 l 180 633 l 180 677 l 156 677 l 156 728 l 765 728 l 765 664 q 731 683 755 683 q 668 575 668 683 q 734 469 668 469 q 778 495 755 469 l 778 472 l 812 472 l 812 728 l 1331 728 l 1331 691 l 1378 691 l 1378 728 l 1878 728 l 1878 0 l 86 0 l 86 406 m 1303 472 l 1303 602 q 1238 678 1303 678 q 1195 644 1204 678 q 1156 678 1182 678 q 1119 645 1132 678 l 1119 677 l 1074 677 l 1074 511 l 1048 511 l 1048 472 l 1145 472 l 1145 511 l 1119 511 l 1119 595 q 1145 627 1119 627 q 1166 595 1166 627 l 1166 472 l 1236 472 l 1236 511 l 1210 511 l 1210 595 q 1236 626 1210 626 q 1257 595 1257 626 l 1257 472 l 1303 472 m 1370 371 l 1292 371 l 1292 108 l 1337 108 l 1337 277 l 1341 277 l 1353 108 l 1434 108 l 1434 371 l 1389 371 l 1389 201 l 1385 201 l 1370 371 m 667 371 l 667 108 l 776 108 l 792 137 l 792 223 l 780 242 l 780 247 l 792 266 l 792 343 l 776 371 l 667 371 m 1148 343 l 1148 137 l 1161 108 l 1254 108 l 1271 137 l 1271 343 l 1256 371 l 1161 371 l 1148 343 m 376 371 l 376 108 l 429 108 l 429 224 l 444 224 l 444 108 l 502 108 l 502 213 l 481 242 l 481 247 l 502 274 l 502 343 l 486 371 l 376 371 m 355 406 l 401 406 l 401 484 q 434 468 410 468 q 499 574 499 468 q 431 680 499 680 q 388 652 412 680 l 388 677 l 355 677 l 355 406 m 660 572 q 583 681 660 681 q 509 572 509 681 q 583 466 509 466 q 660 572 660 466 m 1644 289 l 1697 289 l 1697 342 l 1683 371 l 1591 371 l 1576 343 l 1576 251 l 1592 223 l 1644 210 l 1644 158 l 1630 158 l 1630 197 l 1576 197 l 1576 137 l 1591 108 l 1681 108 l 1697 137 l 1697 237 l 1678 266 l 1630 277 l 1630 323 l 1644 323 l 1644 289 m 355 108 l 355 204 l 318 371 l 261 371 l 230 204 l 230 108 l 281 108 l 281 158 l 300 158 l 300 108 l 355 108 m 644 108 l 644 204 l 611 371 l 554 371 l 522 204 l 522 108 l 575 108 l 575 158 l 592 158 l 592 108 l 644 108 m 234 406 l 263 406 q 340 505 340 414 l 340 677 l 294 677 l 294 550 q 266 514 294 514 q 240 550 240 514 l 240 677 l 196 677 l 196 558 q 259 469 196 469 q 294 480 278 469 q 254 448 294 448 l 234 448 l 234 406 m 942 221 l 978 221 l 978 266 l 942 266 l 942 315 l 978 315 l 978 371 l 889 371 l 889 108 l 978 108 l 978 166 l 942 166 l 942 221 m 1092 216 l 1126 216 l 1126 262 l 1092 262 l 1092 315 l 1126 315 l 1126 371 l 1038 371 l 1038 108 l 1092 108 l 1092 216 m 1478 315 l 1478 108 l 1532 108 l 1532 315 l 1561 315 l 1561 371 l 1448 371 l 1448 315 l 1478 315 m 952 677 l 931 677 l 931 645 q 885 681 916 681 q 825 620 825 681 q 855 570 825 583 q 825 524 825 558 q 887 466 826 466 q 934 484 917 466 q 952 540 952 502 l 931 540 q 896 514 927 514 q 869 533 869 514 q 896 558 869 558 l 910 558 l 910 583 l 896 583 q 869 606 869 583 q 896 629 869 629 q 931 601 920 629 l 952 601 l 952 677 m 1522 674 l 1500 674 l 1500 644 q 1458 681 1483 681 q 1389 572 1389 681 q 1460 468 1389 468 q 1522 548 1510 468 l 1500 548 q 1465 517 1496 517 q 1434 572 1434 517 q 1465 629 1434 629 q 1500 591 1497 629 l 1522 591 l 1522 674 m 209 166 l 179 166 l 179 371 l 126 371 l 126 108 l 209 108 l 209 166 m 869 108 l 869 371 l 815 371 l 815 108 l 869 108 m 1028 511 l 1009 511 l 1009 601 q 1028 629 1009 629 q 1045 620 1036 629 l 1060 666 q 1036 678 1049 676 q 993 645 1007 678 l 993 677 l 968 677 l 968 472 l 1028 472 l 1028 511 m 1310 677 l 1310 633 l 1331 633 l 1331 472 l 1378 472 l 1378 677 l 1310 677 m 397 606 q 426 627 405 627 q 455 574 455 627 q 424 515 455 515 q 397 537 405 515 l 397 606 m 614 572 q 583 517 614 517 q 554 572 554 517 q 583 629 554 629 q 614 572 614 629 m 768 540 q 740 521 759 521 q 712 573 712 521 q 742 633 712 633 q 768 610 759 633 l 768 540 m 87 511 l 87 633 l 114 633 l 114 511 l 87 511 m 1200 157 l 1200 323 l 1216 323 l 1216 157 l 1200 157 m 87 677 l 87 728 l 114 728 l 114 677 l 87 677 m 281 196 l 281 223 l 290 292 l 292 292 l 300 223 l 300 196 l 281 196 m 575 196 l 575 223 l 582 292 l 586 292 l 592 223 l 592 196 l 575 196 m 722 224 l 736 224 l 736 158 l 722 158 l 722 224 m 722 266 l 720 323 l 736 323 l 736 266 l 722 266 m 429 266 l 429 323 l 444 323 l 444 266 l 429 266 "},"Ä":{"x_min":52,"x_max":727,"ha":813,"o":"m 127 475 l 652 475 l 652 722 l 574 800 l 204 800 l 127 722 l 127 475 m 652 400 l 127 400 l 127 1 l 52 1 l 52 754 l 174 875 l 604 875 l 727 754 l 727 1 l 652 1 l 652 400 m 492 1068 q 543 1046 523 1068 q 566 994 564 1025 q 544 942 566 963 q 492 921 523 921 q 440 941 461 921 q 419 994 419 962 q 439 1045 417 1025 q 492 1068 461 1066 m 252 1068 q 303 1046 283 1068 q 326 994 324 1025 q 304 942 326 963 q 252 921 283 921 q 200 941 221 921 q 179 994 179 962 q 199 1045 177 1025 q 252 1068 220 1066 "},"¸":{"x_min":6.703125,"x_max":216,"ha":277,"o":"m 124 11 l 164 11 l 131 -43 q 216 -141 214 -62 q 171 -230 216 -197 q 70 -264 127 -264 q 6 -260 45 -265 l 6 -231 q 40 -233 28 -233 q 95 -211 70 -233 q 122 -158 120 -190 q 67 -108 122 -109 q 49 -109 59 -108 l 124 11 "},"a":{"x_min":62.96875,"x_max":538,"ha":613,"o":"m 538 121 l 415 1 l 185 1 l 62 121 l 62 254 l 185 375 l 438 375 l 438 300 l 215 300 l 137 222 l 137 154 l 215 75 l 385 75 l 463 154 l 463 422 l 385 500 l 162 500 l 162 575 l 415 575 l 538 454 l 538 121 "},"=":{"x_min":62.5,"x_max":437.53125,"ha":499,"o":"m 437 481 l 62 481 l 62 556 l 437 556 l 437 481 m 437 319 l 62 319 l 62 394 l 437 394 l 437 319 "},"N":{"x_min":63,"x_max":738,"ha":814,"o":"m 738 1 l 653 1 l 138 724 l 138 1 l 63 1 l 63 875 l 118 875 l 663 124 l 663 875 l 738 875 l 738 1 "},"˚":{"x_min":38.890625,"x_max":352.859375,"ha":415,"o":"m 195 913 q 295 889 250 914 q 352 810 352 860 q 308 737 354 768 q 195 707 262 707 q 95 730 141 707 q 38 810 40 759 q 95 889 38 860 q 195 913 140 913 m 195 876 q 131 861 159 876 q 95 809 97 843 q 131 759 95 777 q 195 744 161 744 q 259 759 230 744 q 295 809 295 779 q 259 861 295 841 q 195 876 230 876 "},"ú":{"x_min":49,"x_max":523,"ha":615,"o":"m 523 121 l 401 1 l 170 1 l 49 121 l 49 575 l 124 575 l 124 154 l 201 75 l 370 75 l 448 154 l 448 575 l 523 575 l 523 121 m 346 915 l 399 860 l 246 708 l 194 760 l 346 915 "},"2":{"x_min":69,"x_max":444,"ha":515,"o":"m 444 1 l 69 1 l 69 354 l 191 475 l 291 475 l 369 554 l 369 722 l 291 800 l 69 800 l 69 875 l 321 875 l 444 754 l 444 522 l 321 400 l 221 400 l 144 322 l 144 75 l 444 75 l 444 1 "},"ü":{"x_min":49,"x_max":523,"ha":615,"o":"m 523 121 l 401 1 l 170 1 l 49 121 l 49 575 l 124 575 l 124 154 l 201 75 l 370 75 l 448 154 l 448 575 l 523 575 l 523 121 m 425 875 q 476 853 456 875 q 499 801 497 832 q 477 749 499 770 q 425 728 456 728 q 373 748 394 728 q 352 801 352 769 q 372 852 350 832 q 425 875 394 873 m 185 875 q 236 853 216 875 q 259 801 257 832 q 237 749 259 770 q 185 728 216 728 q 133 748 154 728 q 112 801 112 769 q 132 852 110 832 q 185 875 153 873 "},"Z":{"x_min":62.5,"x_max":737.5625,"ha":768,"o":"m 737 1 l 62 1 l 62 153 l 662 754 l 662 800 l 62 800 l 62 875 l 737 875 l 737 722 l 137 122 l 137 75 l 737 75 l 737 1 "},"u":{"x_min":63,"x_max":537,"ha":615,"o":"m 537 121 l 415 1 l 184 1 l 63 121 l 63 575 l 138 575 l 138 154 l 215 75 l 384 75 l 462 154 l 462 575 l 537 575 l 537 121 "},"˜":{"x_min":-6.9375,"x_max":426.421875,"ha":474,"o":"m 15 689 l -6 689 q 120 864 -2 862 q 256 807 169 865 q 340 769 312 769 q 405 864 388 769 l 426 864 q 361 705 426 749 q 297 686 329 686 q 165 740 244 686 q 77 782 104 782 q 33 757 50 782 q 15 689 27 747 "},"Ó":{"x_min":56,"x_max":731,"ha":813,"o":"m 731 121 l 608 1 l 178 1 l 56 121 l 56 754 l 178 875 l 608 875 l 731 754 l 731 121 m 656 154 l 656 722 l 578 800 l 208 800 l 131 722 l 131 154 l 208 75 l 578 75 l 656 154 m 437 1111 l 490 1056 l 337 904 l 285 956 l 437 1111 "},"k":{"x_min":63,"x_max":538,"ha":613,"o":"m 138 1 l 63 1 l 63 875 l 138 875 l 138 375 l 385 375 l 463 454 l 463 575 l 538 575 l 538 422 l 453 337 l 538 253 l 538 1 l 463 1 l 463 222 l 385 300 l 138 300 l 138 1 "},"Ù":{"x_min":52,"x_max":727,"ha":814,"o":"m 727 121 l 604 1 l 174 1 l 52 121 l 52 875 l 127 875 l 127 154 l 204 75 l 574 75 l 652 154 l 652 875 l 727 875 l 727 121 m 494 953 l 440 901 l 289 1053 l 340 1108 l 494 953 "},"Ÿ":{"x_min":-29,"x_max":646,"ha":788,"o":"m 346 1 l 271 1 l 271 322 l 193 400 l 93 400 l -29 522 l -29 875 l 46 875 l 46 554 l 123 475 l 223 475 l 308 391 l 393 475 l 493 475 l 571 554 l 571 875 l 646 875 l 646 522 l 523 400 l 423 400 l 346 322 l 346 1 m 518 1088 q 569 1066 549 1088 q 592 1014 590 1045 q 570 962 592 983 q 518 941 549 941 q 466 961 487 941 q 445 1014 445 982 q 465 1065 443 1045 q 518 1088 487 1086 m 278 1088 q 329 1066 309 1088 q 352 1014 350 1045 q 330 962 352 983 q 278 941 309 941 q 226 961 247 941 q 205 1014 205 982 q 225 1065 203 1045 q 278 1088 246 1086 "},"¢":{"x_min":49,"x_max":537.921875,"ha":574,"o":"m 537 137 l 400 1 l 171 1 l 49 121 l 49 454 l 171 575 l 400 575 l 537 437 l 486 384 l 371 500 l 200 500 l 124 422 l 124 154 l 200 75 l 371 75 l 486 191 l 537 137 m 505 625 l 147 -85 l 91 -57 l 450 653 l 505 625 "},"ß":{"x_min":62.5,"x_max":737.5625,"ha":810,"o":"m 737 121 l 615 1 l 62 1 l 62 754 l 181 875 l 615 875 l 737 754 l 737 522 l 652 437 l 737 353 l 737 121 m 615 1 l 295 1 l 295 74 l 584 74 l 662 153 l 662 321 l 547 437 l 662 553 l 662 721 l 584 799 l 218 799 l 137 721 l 137 1 l 615 1 "},"é":{"x_min":60,"x_max":550.3125,"ha":622,"o":"m 550 137 l 412 1 l 182 1 l 60 121 l 60 454 l 182 575 l 412 575 l 535 454 l 535 322 l 412 200 l 160 200 l 160 275 l 382 275 l 460 354 l 460 422 l 382 500 l 212 500 l 135 422 l 135 154 l 212 75 l 382 75 l 497 191 l 550 137 m 352 911 l 405 856 l 252 704 l 200 756 l 352 911 "},"s":{"x_min":63,"x_max":538.03125,"ha":606,"o":"m 538 121 l 415 1 l 63 1 l 63 75 l 385 75 l 463 154 l 463 250 l 63 250 l 63 454 l 185 575 l 538 575 l 538 500 l 215 500 l 138 422 l 138 325 l 538 325 l 538 121 "},"B":{"x_min":63,"x_max":738,"ha":810,"o":"m 738 121 l 615 1 l 63 1 l 63 875 l 615 875 l 738 754 l 738 522 l 653 437 l 738 353 l 738 121 m 663 154 l 663 322 l 547 437 l 663 554 l 663 722 l 585 800 l 138 800 l 138 75 l 585 75 l 663 154 "},"…":{"x_min":63,"x_max":1302,"ha":1378,"o":"m 138 1 l 63 1 l 63 175 l 138 175 l 138 1 m 720 1 l 645 1 l 645 175 l 720 175 l 720 1 m 1302 1 l 1227 1 l 1227 175 l 1302 175 l 1302 1 "},"?":{"x_min":61.96875,"x_max":437,"ha":493,"o":"m 437 422 l 315 300 l 163 300 l 163 375 l 284 375 l 362 454 l 362 722 l 284 800 l 61 800 l 61 875 l 314 875 l 437 754 l 437 422 m 238 1 l 163 1 l 163 174 l 238 174 l 238 1 "},"H":{"x_min":63,"x_max":737,"ha":811,"o":"m 138 1 l 63 1 l 63 875 l 138 875 l 138 475 l 662 475 l 662 875 l 737 875 l 737 1 l 662 1 l 662 400 l 138 400 l 138 1 "},"î":{"x_min":-58.71875,"x_max":274.640625,"ha":215,"o":"m 127 1 l 52 1 l 52 575 l 127 575 l 127 1 m 41 905 l 166 905 l 274 745 l 219 709 l 103 881 l -10 709 l -58 745 l 41 905 "},"c":{"x_min":63,"x_max":553.3125,"ha":620,"o":"m 553 137 l 415 1 l 185 1 l 63 121 l 63 454 l 185 575 l 415 575 l 553 437 l 500 384 l 385 500 l 215 500 l 138 422 l 138 154 l 215 75 l 385 75 l 500 191 l 553 137 "},"¶":{"x_min":29.59375,"x_max":671.28125,"ha":717,"o":"m 581 882 l 581 -300 l 532 -300 l 532 882 l 405 882 l 405 -300 l 356 -300 l 356 407 q 125 464 201 414 q 29 665 30 525 q 122 861 29 793 q 335 920 204 920 l 671 920 l 671 882 l 581 882 "},"¥":{"x_min":53,"x_max":728,"ha":772,"o":"m 428 1 l 353 1 l 353 322 l 275 400 l 175 400 l 53 522 l 53 875 l 128 875 l 128 554 l 205 475 l 305 475 l 390 391 l 475 475 l 575 475 l 653 554 l 653 875 l 728 875 l 728 522 l 605 400 l 505 400 l 428 322 l 428 1 m 521 201 l 243 201 l 243 255 l 521 255 l 521 201 m 521 89 l 243 89 l 243 142 l 521 142 l 521 89 "},"(":{"x_min":63,"x_max":253.28125,"ha":318,"o":"m 253 39 l 200 -15 l 63 122 l 63 754 l 200 892 l 253 837 l 138 722 l 138 154 l 253 39 "},"U":{"x_min":63,"x_max":738,"ha":814,"o":"m 738 121 l 615 1 l 185 1 l 63 121 l 63 875 l 138 875 l 138 154 l 215 75 l 585 75 l 663 154 l 663 875 l 738 875 l 738 121 "},"Ñ":{"x_min":37,"x_max":712,"ha":813,"o":"m 712 1 l 627 1 l 112 724 l 112 1 l 37 1 l 37 875 l 92 875 l 637 124 l 637 875 l 712 875 l 712 1 m 183 920 l 161 920 q 288 1095 165 1093 q 424 1038 337 1096 q 508 1000 480 1000 q 573 1095 556 1000 l 594 1095 q 529 936 594 980 q 465 917 497 917 q 333 971 412 917 q 245 1013 272 1013 q 201 988 218 1013 q 183 920 195 978 "},"F":{"x_min":63,"x_max":738.046875,"ha":738,"o":"m 738 400 l 138 400 l 138 1 l 63 1 l 63 754 l 185 875 l 738 875 l 738 800 l 215 800 l 138 722 l 138 475 l 738 475 l 738 400 "},":":{"x_min":63,"x_max":138,"ha":215,"o":"m 138 300 l 63 300 l 63 475 l 138 475 l 138 300 m 138 1 l 63 1 l 63 174 l 138 174 l 138 1 "},"Û":{"x_min":52,"x_max":727,"ha":814,"o":"m 727 121 l 604 1 l 174 1 l 52 121 l 52 875 l 127 875 l 127 154 l 204 75 l 574 75 l 652 154 l 652 875 l 727 875 l 727 121 m 330 1096 l 455 1096 l 563 936 l 508 900 l 392 1072 l 278 900 l 230 936 l 330 1096 "},"*":{"x_min":147.71875,"x_max":453.28125,"ha":518,"o":"m 338 200 l 263 200 l 263 347 l 200 284 l 147 337 l 247 437 l 147 537 l 200 591 l 263 529 l 263 675 l 338 675 l 338 529 l 400 591 l 453 537 l 353 437 l 453 337 l 400 284 l 338 347 l 338 200 "},"°":{"x_min":50,"x_max":467,"ha":543,"o":"m 258 940 q 406 878 346 940 q 467 730 467 817 q 405 583 467 644 q 258 522 344 522 q 110 583 170 522 q 50 730 50 644 q 109 879 50 819 q 258 940 169 940 m 258 883 q 150 839 194 883 q 106 731 106 795 q 149 623 104 667 q 258 580 194 580 q 366 624 321 580 q 411 731 411 668 q 366 838 411 795 q 258 883 322 881 "},"V":{"x_min":43.0625,"x_max":755.609375,"ha":801,"o":"m 43 875 l 122 875 l 400 144 l 677 875 l 755 875 l 426 1 l 373 1 l 43 875 "},"å":{"x_min":56.96875,"x_max":532,"ha":613,"o":"m 532 121 l 409 1 l 179 1 l 56 121 l 56 254 l 179 375 l 432 375 l 432 300 l 209 300 l 131 222 l 131 154 l 209 75 l 379 75 l 457 154 l 457 422 l 379 500 l 156 500 l 156 575 l 409 575 l 532 454 l 532 121 m 302 899 q 402 875 357 900 q 459 796 459 846 q 415 723 461 754 q 302 693 369 693 q 202 716 248 693 q 145 796 147 745 q 202 875 145 846 q 302 899 247 899 m 302 862 q 238 847 266 862 q 202 795 204 829 q 238 745 202 763 q 302 730 268 730 q 366 745 337 730 q 402 795 402 765 q 366 847 402 827 q 302 862 337 862 "},"0":{"x_min":69,"x_max":444,"ha":515,"o":"m 444 121 l 321 1 l 191 1 l 69 121 l 69 754 l 191 875 l 321 875 l 444 754 l 444 121 m 369 154 l 369 722 l 291 800 l 221 800 l 144 722 l 144 154 l 221 75 l 291 75 l 369 154 "},"”":{"x_min":63,"x_max":337,"ha":415,"o":"m 337 600 l 262 600 l 262 875 l 337 875 l 337 600 m 138 600 l 63 600 l 63 875 l 138 875 l 138 600 "},"@":{"x_min":63,"x_max":738,"ha":807,"o":"m 738 50 l 185 50 l 63 172 l 63 714 l 185 835 l 615 835 l 738 714 l 738 200 l 325 200 l 203 322 l 203 554 l 325 675 l 578 675 l 578 299 l 503 299 l 503 600 l 355 600 l 278 522 l 278 354 l 355 275 l 663 275 l 663 682 l 585 760 l 215 760 l 138 682 l 138 204 l 215 125 l 738 125 l 738 50 "},"ö":{"x_min":60,"x_max":535,"ha":613,"o":"m 535 121 l 412 1 l 182 1 l 60 121 l 60 454 l 182 575 l 412 575 l 535 454 l 535 121 m 460 154 l 460 422 l 382 500 l 212 500 l 135 422 l 135 154 l 212 75 l 382 75 l 460 154 m 424 875 q 475 853 455 875 q 498 801 496 832 q 476 749 498 770 q 424 728 455 728 q 372 748 393 728 q 351 801 351 769 q 371 852 349 832 q 424 875 393 873 m 184 875 q 235 853 215 875 q 258 801 256 832 q 236 749 258 770 q 184 728 215 728 q 132 748 153 728 q 111 801 111 769 q 131 852 109 832 q 184 875 152 873 "},"i":{"x_min":63,"x_max":138,"ha":215,"o":"m 138 599 l 63 599 l 63 775 l 138 775 l 138 599 m 138 1 l 63 1 l 63 575 l 138 575 l 138 1 "},"Õ":{"x_min":56,"x_max":731,"ha":813,"o":"m 731 121 l 608 1 l 178 1 l 56 121 l 56 754 l 178 875 l 608 875 l 731 754 l 731 121 m 656 154 l 656 722 l 578 800 l 208 800 l 131 722 l 131 154 l 208 75 l 578 75 l 656 154 m 187 918 l 165 918 q 292 1093 169 1091 q 428 1036 341 1094 q 512 998 484 998 q 577 1093 560 998 l 598 1093 q 533 934 598 978 q 469 915 501 915 q 337 969 416 915 q 249 1011 276 1011 q 205 986 222 1011 q 187 918 199 976 "},"]":{"x_min":81,"x_max":356,"ha":432,"o":"m 356 1 l 81 1 l 81 75 l 281 75 l 281 800 l 81 800 l 81 875 l 356 875 l 356 1 "},"m":{"x_min":63,"x_max":738,"ha":814,"o":"m 438 1 l 363 1 l 363 422 l 285 500 l 215 500 l 138 422 l 138 1 l 63 1 l 63 454 l 185 575 l 315 575 l 400 491 l 485 575 l 615 575 l 738 454 l 738 1 l 663 1 l 663 422 l 585 500 l 515 500 l 438 422 l 438 1 "},"8":{"x_min":69,"x_max":444,"ha":515,"o":"m 256 434 l 144 322 l 144 154 l 221 75 l 291 75 l 369 154 l 369 322 l 256 434 m 256 541 l 369 654 l 369 722 l 291 800 l 221 800 l 144 722 l 144 654 l 256 541 m 444 121 l 321 1 l 191 1 l 69 121 l 69 353 l 203 487 l 69 622 l 69 754 l 191 875 l 321 875 l 444 754 l 444 622 l 309 487 l 444 353 l 444 121 "},"R":{"x_min":63,"x_max":738,"ha":814,"o":"m 138 475 l 585 475 l 663 554 l 663 722 l 585 800 l 215 800 l 138 722 l 138 475 m 585 400 l 138 400 l 138 1 l 63 1 l 63 754 l 185 875 l 615 875 l 738 754 l 738 522 l 653 437 l 738 353 l 738 1 l 663 1 l 663 322 l 585 400 "},"á":{"x_min":56.96875,"x_max":532,"ha":613,"o":"m 532 121 l 409 1 l 179 1 l 56 121 l 56 254 l 179 375 l 432 375 l 432 300 l 209 300 l 131 222 l 131 154 l 209 75 l 379 75 l 457 154 l 457 422 l 379 500 l 156 500 l 156 575 l 409 575 l 532 454 l 532 121 m 364 917 l 417 862 l 264 710 l 212 762 l 364 917 "},"×":{"x_min":119.453125,"x_max":676.4375,"ha":850,"o":"m 119 221 l 359 462 l 120 699 l 159 740 l 398 501 l 637 740 l 675 701 l 436 462 l 676 221 l 637 183 l 397 423 l 158 183 l 119 221 "},"o":{"x_min":63,"x_max":538,"ha":613,"o":"m 538 121 l 415 1 l 185 1 l 63 121 l 63 454 l 185 575 l 415 575 l 538 454 l 538 121 m 463 154 l 463 422 l 385 500 l 215 500 l 138 422 l 138 154 l 215 75 l 385 75 l 463 154 "},"5":{"x_min":69,"x_max":444,"ha":515,"o":"m 444 121 l 321 1 l 69 1 l 69 75 l 291 75 l 369 154 l 369 322 l 291 400 l 69 400 l 69 875 l 444 875 l 444 800 l 144 800 l 144 475 l 321 475 l 444 354 l 444 121 "},"õ":{"x_min":60,"x_max":535,"ha":613,"o":"m 535 121 l 412 1 l 182 1 l 60 121 l 60 454 l 182 575 l 412 575 l 535 454 l 535 121 m 460 154 l 460 422 l 382 500 l 212 500 l 135 422 l 135 154 l 212 75 l 382 75 l 460 154 m 103 720 l 81 720 q 208 895 85 893 q 344 838 257 896 q 428 800 400 800 q 493 895 476 800 l 514 895 q 449 736 514 780 q 385 717 417 717 q 253 771 332 717 q 165 813 192 813 q 121 788 138 813 q 103 720 115 778 "},"7":{"x_min":68.984375,"x_max":444,"ha":515,"o":"m 444 622 l 244 422 l 244 1 l 169 1 l 169 454 l 369 654 l 369 800 l 68 800 l 68 875 l 444 875 l 444 622 "},"K":{"x_min":63,"x_max":738,"ha":814,"o":"m 138 1 l 63 1 l 63 875 l 138 875 l 138 475 l 585 475 l 663 554 l 663 875 l 738 875 l 738 522 l 653 437 l 738 353 l 738 1 l 663 1 l 663 322 l 585 400 l 138 400 l 138 1 "},",":{"x_min":63,"x_max":138,"ha":218,"o":"m 138 -99 l 63 -99 l 63 175 l 138 175 l 138 -99 "},"d":{"x_min":63,"x_max":538,"ha":617,"o":"m 538 121 l 415 1 l 185 1 l 63 121 l 63 454 l 185 575 l 438 575 l 438 500 l 215 500 l 138 422 l 138 154 l 215 75 l 385 75 l 463 154 l 463 875 l 538 875 l 538 121 "},"¨":{"x_min":14.921875,"x_max":402,"ha":471,"o":"m 328 837 q 379 815 359 837 q 402 763 400 794 q 380 711 402 732 q 328 690 359 690 q 276 710 297 690 q 255 763 255 731 q 275 814 253 794 q 328 837 297 835 m 88 837 q 139 815 119 837 q 162 763 160 794 q 140 711 162 732 q 88 690 119 690 q 36 710 57 690 q 15 763 15 731 q 35 814 13 794 q 88 837 56 835 "},"Ô":{"x_min":56,"x_max":731,"ha":813,"o":"m 731 121 l 608 1 l 178 1 l 56 121 l 56 754 l 178 875 l 608 875 l 731 754 l 731 121 m 656 154 l 656 722 l 578 800 l 208 800 l 131 722 l 131 154 l 208 75 l 578 75 l 656 154 m 330 1096 l 455 1096 l 563 936 l 508 900 l 392 1072 l 278 900 l 230 936 l 330 1096 "},"E":{"x_min":63,"x_max":738.046875,"ha":738,"o":"m 738 1 l 63 1 l 63 353 l 147 437 l 63 522 l 63 875 l 738 875 l 738 800 l 138 800 l 138 554 l 215 475 l 738 475 l 738 400 l 215 400 l 138 322 l 138 75 l 738 75 l 738 1 "},"Y":{"x_min":63,"x_max":738,"ha":788,"o":"m 438 1 l 363 1 l 363 322 l 285 400 l 185 400 l 63 522 l 63 875 l 138 875 l 138 554 l 215 475 l 315 475 l 400 391 l 485 475 l 585 475 l 663 554 l 663 875 l 738 875 l 738 522 l 615 400 l 515 400 l 438 322 l 438 1 "},"\"":{"x_min":63,"x_max":337,"ha":415,"o":"m 337 600 l 262 600 l 262 875 l 337 875 l 337 600 m 138 600 l 63 600 l 63 875 l 138 875 l 138 600 "},"‹":{"x_min":56.953125,"x_max":273.640625,"ha":319,"o":"m 131 419 l 273 352 l 273 269 l 56 376 l 56 458 l 273 571 l 273 484 l 131 419 "},"ê":{"x_min":60,"x_max":550.3125,"ha":622,"o":"m 550 137 l 412 1 l 182 1 l 60 121 l 60 454 l 182 575 l 412 575 l 535 454 l 535 322 l 412 200 l 160 200 l 160 275 l 382 275 l 460 354 l 460 422 l 382 500 l 212 500 l 135 422 l 135 154 l 212 75 l 382 75 l 497 191 l 550 137 m 233 903 l 358 903 l 466 743 l 411 707 l 295 879 l 181 707 l 133 743 l 233 903 "},"Ï":{"x_min":-100.078125,"x_max":287,"ha":211,"o":"m 135 1 l 60 1 l 60 875 l 135 875 l 135 1 m 213 1076 q 264 1054 244 1076 q 287 1002 285 1033 q 265 950 287 971 q 213 929 244 929 q 161 949 182 929 q 140 1002 140 970 q 160 1053 138 1033 q 213 1076 182 1074 m -26 1076 q 24 1054 4 1076 q 47 1002 45 1033 q 25 950 47 971 q -26 929 4 929 q -78 949 -57 929 q -100 1002 -100 970 q -79 1053 -101 1033 q -26 1076 -58 1074 "},"Â":{"x_min":52,"x_max":727,"ha":813,"o":"m 127 475 l 652 475 l 652 722 l 574 800 l 204 800 l 127 722 l 127 475 m 652 400 l 127 400 l 127 1 l 52 1 l 52 754 l 174 875 l 604 875 l 727 754 l 727 1 l 652 1 l 652 400 m 323 1096 l 448 1096 l 556 936 l 501 900 l 385 1072 l 271 900 l 223 936 l 323 1096 "},"´":{"x_min":36.109375,"x_max":241.6875,"ha":300,"o":"m 188 907 l 241 852 l 88 700 l 36 752 l 188 907 "},"Í":{"x_min":24.109375,"x_max":229.6875,"ha":211,"o":"m 138 1 l 63 1 l 63 875 l 138 875 l 138 1 m 176 1108 l 229 1053 l 76 901 l 24 953 l 176 1108 "},"ì":{"x_min":1.0625,"x_max":206.640625,"ha":215,"o":"m 134 1 l 59 1 l 59 575 l 134 575 l 134 1 m 206 770 l 152 718 l 1 870 l 52 925 l 206 770 "},"Ú":{"x_min":52,"x_max":727,"ha":814,"o":"m 727 121 l 604 1 l 174 1 l 52 121 l 52 875 l 127 875 l 127 154 l 204 75 l 574 75 l 652 154 l 652 875 l 727 875 l 727 121 m 453 1104 l 506 1049 l 353 897 l 301 949 l 453 1104 "},"|":{"x_min":81,"x_max":156,"ha":233,"o":"m 156 -199 l 81 -199 l 81 875 l 156 875 l 156 -199 "},"Ý":{"x_min":53,"x_max":728,"ha":850,"o":"m 428 1 l 353 1 l 353 322 l 275 400 l 175 400 l 53 522 l 53 875 l 128 875 l 128 554 l 205 475 l 305 475 l 390 391 l 475 475 l 575 475 l 653 554 l 653 875 l 728 875 l 728 522 l 605 400 l 505 400 l 428 322 l 428 1 m 445 1110 l 498 1055 l 345 903 l 293 955 l 445 1110 "},"b":{"x_min":63,"x_max":537,"ha":608,"o":"m 537 121 l 415 1 l 184 1 l 63 121 l 63 875 l 138 875 l 138 154 l 215 75 l 384 75 l 462 154 l 462 422 l 384 500 l 161 500 l 161 575 l 414 575 l 537 454 l 537 121 "},"q":{"x_min":63,"x_max":538,"ha":614,"o":"m 538 -199 l 463 -199 l 463 422 l 385 500 l 215 500 l 138 422 l 138 154 l 215 75 l 438 75 l 438 1 l 185 1 l 63 121 l 63 454 l 185 575 l 415 575 l 538 454 l 538 -199 "},"Ö":{"x_min":56,"x_max":731,"ha":813,"o":"m 731 121 l 608 1 l 178 1 l 56 121 l 56 754 l 178 875 l 608 875 l 731 754 l 731 121 m 656 154 l 656 722 l 578 800 l 208 800 l 131 722 l 131 154 l 208 75 l 578 75 l 656 154 m 513 1076 q 564 1054 544 1076 q 587 1002 585 1033 q 565 950 587 971 q 513 929 544 929 q 461 949 482 929 q 440 1002 440 970 q 460 1053 438 1033 q 513 1076 482 1074 m 273 1076 q 324 1054 304 1076 q 347 1002 345 1033 q 325 950 347 971 q 273 929 304 929 q 221 949 242 929 q 200 1002 200 970 q 220 1053 198 1033 q 273 1076 241 1074 "},"z":{"x_min":62.5,"x_max":537.546875,"ha":592,"o":"m 537 1 l 62 1 l 62 155 l 462 455 l 462 500 l 62 500 l 62 575 l 537 575 l 537 418 l 137 118 l 137 75 l 537 75 l 537 1 "},"™":{"x_min":59.390625,"x_max":700,"ha":779,"o":"m 240 672 l 240 363 l 158 363 l 158 672 l 59 672 l 59 747 l 335 747 l 335 672 l 240 672 m 622 575 l 538 361 l 447 583 l 447 364 l 371 364 l 371 749 l 463 748 l 537 550 l 609 749 l 700 748 l 700 364 l 622 364 l 622 575 "},"ã":{"x_min":56.96875,"x_max":532,"ha":613,"o":"m 532 121 l 409 1 l 179 1 l 56 121 l 56 254 l 179 375 l 432 375 l 432 300 l 209 300 l 131 222 l 131 154 l 209 75 l 379 75 l 457 154 l 457 422 l 379 500 l 156 500 l 156 575 l 409 575 l 532 454 l 532 121 m 111 718 l 89 718 q 216 893 93 891 q 352 836 265 894 q 436 798 408 798 q 501 893 484 798 l 522 893 q 457 734 522 778 q 393 715 425 715 q 261 769 340 715 q 173 811 200 811 q 129 786 146 811 q 111 718 123 776 "},"æ":{"x_min":41.96875,"x_max":935.3125,"ha":1028,"o":"m 481 85 l 394 1 l 165 1 l 41 121 l 41 254 l 165 375 l 417 375 l 417 300 l 194 300 l 116 222 l 116 154 l 194 75 l 365 75 l 442 154 l 442 422 l 365 500 l 141 500 l 141 575 l 394 575 l 481 490 l 567 575 l 797 575 l 920 454 l 920 322 l 797 200 l 545 200 l 545 275 l 767 275 l 845 354 l 845 422 l 767 500 l 597 500 l 520 422 l 520 154 l 597 75 l 767 75 l 882 191 l 935 137 l 797 1 l 567 1 l 481 85 "},"®":{"x_min":33.984375,"x_max":813,"ha":845,"o":"m 422 888 q 698 772 583 888 q 813 497 813 657 q 698 222 813 335 q 422 109 583 109 q 147 222 260 109 q 34 497 34 336 q 147 773 32 660 q 422 888 261 886 m 422 853 q 171 748 275 853 q 67 497 67 644 q 171 245 67 348 q 422 142 275 142 q 673 245 569 140 q 778 497 778 350 q 674 748 779 644 q 422 853 569 853 m 272 532 l 526 532 l 570 570 l 570 655 l 526 693 l 316 693 l 272 655 l 272 532 m 526 494 l 272 494 l 272 296 l 230 296 l 230 671 l 299 731 l 543 731 l 613 671 l 613 555 l 564 513 l 613 471 l 613 296 l 570 296 l 570 456 l 526 494 "},"É":{"x_min":70,"x_max":745.046875,"ha":738,"o":"m 745 1 l 70 1 l 70 353 l 154 437 l 70 522 l 70 875 l 745 875 l 745 800 l 145 800 l 145 554 l 222 475 l 745 475 l 745 400 l 222 400 l 145 322 l 145 75 l 745 75 l 745 1 m 471 1108 l 524 1053 l 371 901 l 319 953 l 471 1108 "},"~":{"x_min":8.328125,"x_max":155.5625,"ha":218,"o":"m 155 932 l 122 899 l 76 899 l 59 918 l 45 899 l 8 899 l 40 932 l 80 932 l 100 912 l 118 932 l 155 932 "},"¡":{"x_min":40,"x_max":115,"ha":178,"o":"m 115 -297 l 40 -297 l 40 378 l 115 378 l 115 -297 m 115 402 l 40 402 l 40 576 l 115 576 l 115 402 "},"[":{"x_min":81,"x_max":356,"ha":401,"o":"m 356 1 l 81 1 l 81 875 l 356 875 l 356 800 l 156 800 l 156 75 l 356 75 l 356 1 "},"L":{"x_min":63,"x_max":737,"ha":758,"o":"m 737 122 l 614 1 l 185 1 l 63 121 l 63 875 l 138 875 l 138 154 l 215 75 l 584 75 l 662 154 l 662 275 l 737 275 l 737 122 "}," ":{"x_min":0,"x_max":0,"ha":368},"%":{"x_min":12.5,"x_max":784.78125,"ha":826,"o":"m 438 622 l 315 499 l 185 499 l 62 622 l 62 754 l 185 875 l 315 875 l 438 754 l 438 622 m 363 654 l 363 722 l 285 800 l 215 800 l 137 722 l 137 654 l 215 575 l 285 575 l 363 654 m 784 890 l 106 -14 l 12 -14 l 693 890 l 784 890 m 738 122 l 615 1 l 485 1 l 363 122 l 363 254 l 485 375 l 615 375 l 738 254 l 738 122 m 663 154 l 663 222 l 585 300 l 515 300 l 438 222 l 438 154 l 515 75 l 585 75 l 663 154 "},"P":{"x_min":63,"x_max":738,"ha":770,"o":"m 138 475 l 585 475 l 663 554 l 663 722 l 585 800 l 215 800 l 138 722 l 138 475 m 738 522 l 615 400 l 138 400 l 138 1 l 63 1 l 63 754 l 185 875 l 615 875 l 738 754 l 738 522 "},"À":{"x_min":52,"x_max":727,"ha":813,"o":"m 127 475 l 652 475 l 652 722 l 574 800 l 204 800 l 127 722 l 127 475 m 652 400 l 127 400 l 127 1 l 52 1 l 52 754 l 174 875 l 604 875 l 727 754 l 727 1 l 652 1 l 652 400 m 483 948 l 429 896 l 278 1048 l 329 1103 l 483 948 "},"_":{"x_min":62.5,"x_max":737.5625,"ha":738,"o":"m 737 -99 l 62 -99 l 62 -24 l 737 -24 l 737 -99 "},"ñ":{"x_min":76,"x_max":551,"ha":654,"o":"m 551 1 l 476 1 l 476 422 l 398 500 l 228 500 l 151 422 l 151 1 l 76 1 l 76 454 l 198 575 l 428 575 l 551 454 l 551 1 m 109 718 l 87 718 q 214 893 91 891 q 350 836 263 894 q 434 798 406 798 q 499 893 482 798 l 520 893 q 455 734 520 778 q 391 715 423 715 q 259 769 338 715 q 171 811 198 811 q 127 786 144 811 q 109 718 121 776 "},"+":{"x_min":62.984375,"x_max":338.015625,"ha":406,"o":"m 338 400 l 238 400 l 238 300 l 163 300 l 163 400 l 62 400 l 62 475 l 163 475 l 163 575 l 238 575 l 238 475 l 338 475 l 338 400 "},"Æ":{"x_min":43,"x_max":765.25,"ha":861,"o":"m 365 1 l 365 400 l 118 400 l 118 1 l 43 1 l 43 754 l 165 875 l 765 875 l 765 800 l 443 800 l 443 475 l 765 475 l 765 400 l 443 400 l 443 75 l 765 75 l 765 1 l 365 1 m 365 475 l 365 800 l 195 800 l 118 722 l 118 475 l 365 475 "},"Ë":{"x_min":70,"x_max":745.046875,"ha":738,"o":"m 745 1 l 70 1 l 70 353 l 154 437 l 70 522 l 70 875 l 745 875 l 745 800 l 145 800 l 145 554 l 222 475 l 745 475 l 745 400 l 222 400 l 145 322 l 145 75 l 745 75 l 745 1 m 510 1075 q 561 1053 541 1075 q 584 1001 582 1032 q 562 949 584 970 q 510 928 541 928 q 458 948 479 928 q 437 1001 437 969 q 457 1052 435 1032 q 510 1075 479 1073 m 270 1075 q 321 1053 301 1075 q 344 1001 342 1032 q 322 949 344 970 q 270 928 301 928 q 218 948 239 928 q 197 1001 197 969 q 217 1052 195 1032 q 270 1075 238 1073 "},"'":{"x_min":63,"x_max":138,"ha":138,"o":"m 138 600 l 63 600 l 63 875 l 138 875 l 138 600 "},"Œ":{"x_min":57,"x_max":777.25,"ha":874,"o":"m 455 75 l 777 75 l 777 1 l 179 1 l 57 121 l 57 754 l 179 875 l 777 875 l 777 800 l 455 800 l 455 475 l 777 475 l 777 400 l 455 400 l 455 75 m 380 800 l 210 800 l 132 722 l 132 154 l 210 75 l 380 75 l 380 800 "},"T":{"x_min":62.96875,"x_max":738.03125,"ha":761,"o":"m 438 1 l 363 1 l 363 722 l 285 800 l 62 800 l 62 875 l 315 875 l 400 791 l 485 875 l 738 875 l 738 800 l 515 800 l 438 722 l 438 1 "},"j":{"x_min":-12.015625,"x_max":263,"ha":340,"o":"m 263 599 l 188 599 l 188 775 l 263 775 l 263 599 m 263 -78 l 140 -199 l -12 -199 l -12 -124 l 108 -124 l 188 -46 l 188 575 l 263 575 l 263 -78 "},"1":{"x_min":63,"x_max":138,"ha":211,"o":"m 138 1 l 63 1 l 63 875 l 138 875 l 138 1 "},"›":{"x_min":56.953125,"x_max":273.640625,"ha":319,"o":"m 198 422 l 56 487 l 56 571 l 273 463 l 273 381 l 56 269 l 56 355 l 198 422 "},"ı":{"x_min":63,"x_max":138,"ha":206,"o":"m 138 1 l 63 1 l 63 575 l 138 575 l 138 1 "},"ä":{"x_min":56.96875,"x_max":532,"ha":613,"o":"m 532 121 l 409 1 l 179 1 l 56 121 l 56 254 l 179 375 l 432 375 l 432 300 l 209 300 l 131 222 l 131 154 l 209 75 l 379 75 l 457 154 l 457 422 l 379 500 l 156 500 l 156 575 l 409 575 l 532 454 l 532 121 m 425 872 q 476 850 456 872 q 499 798 497 829 q 477 746 499 767 q 425 725 456 725 q 373 745 394 725 q 352 798 352 766 q 372 849 350 829 q 425 872 394 870 m 185 872 q 236 850 216 872 q 259 798 257 829 q 237 746 259 767 q 185 725 216 725 q 133 745 154 725 q 112 798 112 766 q 132 849 110 829 q 185 872 153 870 "},"<":{"x_min":47.21875,"x_max":352.8125,"ha":429,"o":"m 352 237 l 300 185 l 47 437 l 300 692 l 352 637 l 152 437 l 352 237 "},"t":{"x_min":60.984375,"x_max":436.015625,"ha":481,"o":"m 436 1 l 281 1 l 161 121 l 161 500 l 60 500 l 60 575 l 161 575 l 161 875 l 236 875 l 236 575 l 336 575 l 336 500 l 236 500 l 236 154 l 313 75 l 436 75 l 436 1 "},"ù":{"x_min":49,"x_max":523,"ha":615,"o":"m 523 121 l 401 1 l 170 1 l 49 121 l 49 575 l 124 575 l 124 154 l 201 75 l 370 75 l 448 154 l 448 575 l 523 575 l 523 121 m 402 756 l 348 704 l 197 856 l 248 911 l 402 756 "},"W":{"x_min":63,"x_max":938,"ha":1014,"o":"m 938 121 l 815 1 l 585 1 l 500 84 l 415 1 l 185 1 l 63 121 l 63 875 l 138 875 l 138 154 l 215 75 l 385 75 l 463 154 l 463 875 l 538 875 l 538 154 l 615 75 l 785 75 l 863 154 l 863 875 l 938 875 l 938 121 "},"ï":{"x_min":-89.078125,"x_max":298,"ha":215,"o":"m 137 1 l 62 1 l 62 575 l 137 575 l 137 1 m 224 879 q 275 857 255 879 q 298 805 296 836 q 276 753 298 774 q 224 732 255 732 q 172 752 193 732 q 151 805 151 773 q 171 856 149 836 q 224 879 193 877 m -15 879 q 35 857 15 879 q 58 805 56 836 q 36 753 58 774 q -15 732 15 732 q -67 752 -46 732 q -89 805 -89 773 q -68 856 -90 836 q -15 879 -47 877 "},">":{"x_min":47.21875,"x_max":352.8125,"ha":428,"o":"m 352 437 l 100 185 l 47 237 l 247 437 l 47 637 l 100 692 l 352 437 "},"v":{"x_min":63,"x_max":537,"ha":608,"o":"m 537 222 l 300 -15 l 63 222 l 63 575 l 138 575 l 138 254 l 300 91 l 462 254 l 462 575 l 537 575 l 537 222 "},"û":{"x_min":49,"x_max":523,"ha":615,"o":"m 523 121 l 401 1 l 170 1 l 49 121 l 49 575 l 124 575 l 124 154 l 201 75 l 370 75 l 448 154 l 448 575 l 523 575 l 523 121 m 232 905 l 357 905 l 465 745 l 410 709 l 294 881 l 180 709 l 132 745 l 232 905 "},"Ò":{"x_min":56,"x_max":731,"ha":813,"o":"m 731 121 l 608 1 l 178 1 l 56 121 l 56 754 l 178 875 l 608 875 l 731 754 l 731 121 m 656 154 l 656 722 l 578 800 l 208 800 l 131 722 l 131 154 l 208 75 l 578 75 l 656 154 m 497 948 l 443 896 l 292 1048 l 343 1103 l 497 948 "},"&":{"x_min":63,"x_max":738.015625,"ha":774,"o":"m 738 1 l 585 1 l 500 84 l 415 1 l 185 1 l 63 121 l 63 353 l 148 437 l 63 522 l 63 754 l 185 875 l 415 875 l 553 737 l 500 684 l 385 800 l 215 800 l 138 722 l 138 554 l 253 437 l 138 322 l 138 154 l 215 75 l 385 75 l 463 154 l 463 354 l 585 475 l 738 475 l 738 400 l 615 400 l 538 322 l 538 154 l 615 75 l 738 75 l 738 1 "},"I":{"x_min":63,"x_max":138,"ha":211,"o":"m 138 1 l 63 1 l 63 875 l 138 875 l 138 1 "},"Ð":{"x_min":55.5625,"x_max":786,"ha":850,"o":"m 786 121 l 662 1 l 111 1 l 111 875 l 662 875 l 786 754 l 786 121 m 711 154 l 711 722 l 633 800 l 186 800 l 186 75 l 633 75 l 711 154 m 251 414 l 55 414 l 55 489 l 251 489 l 251 414 "},"G":{"x_min":63,"x_max":753.328125,"ha":797,"o":"m 753 737 l 700 684 l 585 800 l 215 800 l 138 722 l 138 154 l 215 75 l 662 75 l 662 322 l 584 400 l 261 400 l 261 475 l 614 475 l 737 354 l 737 1 l 185 1 l 63 121 l 63 754 l 185 875 l 615 875 l 753 737 "},"`":{"x_min":68.0625,"x_max":273.640625,"ha":339,"o":"m 273 752 l 219 700 l 68 852 l 119 907 l 273 752 "},"r":{"x_min":63,"x_max":537,"ha":572,"o":"m 537 299 l 462 299 l 462 422 l 384 500 l 215 500 l 138 422 l 138 1 l 63 1 l 63 454 l 184 575 l 415 575 l 537 454 l 537 299 "},"¿":{"x_min":29,"x_max":404.03125,"ha":488,"o":"m 29 155 l 151 278 l 305 278 l 305 203 l 182 203 l 104 123 l 104 -144 l 181 -222 l 404 -222 l 404 -297 l 151 -297 l 29 -176 l 29 155 m 230 576 l 305 576 l 305 402 l 230 402 l 230 576 "},"ý":{"x_min":52,"x_max":527,"ha":633,"o":"m 527 -78 l 404 -199 l 52 -199 l 52 -124 l 374 -124 l 452 -46 l 452 1 l 174 1 l 52 121 l 52 575 l 127 575 l 127 154 l 204 75 l 452 75 l 452 575 l 527 575 l 527 -78 m 355 915 l 408 860 l 255 708 l 203 760 l 355 915 "},"x":{"x_min":63,"x_max":537,"ha":615,"o":"m 215 300 l 138 222 l 138 1 l 63 1 l 63 253 l 148 337 l 63 422 l 63 575 l 138 575 l 138 454 l 215 375 l 384 375 l 462 454 l 462 575 l 537 575 l 537 422 l 452 337 l 537 253 l 537 1 l 462 1 l 462 222 l 384 300 l 215 300 "},"è":{"x_min":60,"x_max":550.3125,"ha":622,"o":"m 550 137 l 412 1 l 182 1 l 60 121 l 60 454 l 182 575 l 412 575 l 535 454 l 535 322 l 412 200 l 160 200 l 160 275 l 382 275 l 460 354 l 460 422 l 382 500 l 212 500 l 135 422 l 135 154 l 212 75 l 382 75 l 497 191 l 550 137 m 406 756 l 352 704 l 201 856 l 252 911 l 406 756 "},"º":{"x_min":39.96875,"x_max":434,"ha":472,"o":"m 239 939 q 377 881 323 939 q 434 740 432 823 q 374 594 434 655 q 230 533 314 533 q 93 589 146 533 q 40 729 40 645 q 93 879 38 820 q 239 939 148 937 m 220 910 q 134 782 135 911 q 181 606 134 675 q 250 568 207 568 q 340 694 340 568 q 292 868 341 798 q 220 910 262 908 "},"Ø":{"x_min":81,"x_max":756,"ha":850,"o":"m 756 121 l 632 1 l 203 1 l 81 121 l 81 754 l 203 875 l 632 875 l 756 754 l 756 121 m 681 154 l 681 722 l 603 800 l 232 800 l 156 722 l 156 154 l 232 75 l 603 75 l 681 154 m 691 900 l 207 -63 l 134 -25 l 617 938 l 691 900 "},"÷":{"x_min":50.5,"x_max":325.53125,"ha":390,"o":"m 325 524 l 50 524 l 50 599 l 325 599 l 325 524 m 221 740 l 146 740 l 146 914 l 221 914 l 221 740 m 221 234 l 146 234 l 146 408 l 221 408 l 221 234 "},"h":{"x_min":63,"x_max":538,"ha":613,"o":"m 138 1 l 63 1 l 63 875 l 138 875 l 138 529 l 185 575 l 415 575 l 538 454 l 538 1 l 463 1 l 463 422 l 385 500 l 215 500 l 138 422 l 138 1 "},".":{"x_min":63,"x_max":138,"ha":214,"o":"m 138 1 l 63 1 l 63 175 l 138 175 l 138 1 "},";":{"x_min":63,"x_max":138,"ha":215,"o":"m 138 300 l 63 300 l 63 475 l 138 475 l 138 300 m 138 -99 l 63 -99 l 63 174 l 138 174 l 138 -99 "},"f":{"x_min":60,"x_max":435.015625,"ha":435,"o":"m 435 800 l 312 800 l 235 722 l 235 575 l 335 575 l 335 500 l 235 500 l 235 1 l 160 1 l 160 500 l 60 500 l 60 575 l 160 575 l 160 754 l 282 875 l 435 875 l 435 800 "},"“":{"x_min":63,"x_max":337,"ha":415,"o":"m 337 600 l 262 600 l 262 875 l 337 875 l 337 600 m 138 600 l 63 600 l 63 875 l 138 875 l 138 600 "},"A":{"x_min":63,"x_max":738,"ha":813,"o":"m 138 475 l 663 475 l 663 722 l 585 800 l 215 800 l 138 722 l 138 475 m 663 400 l 138 400 l 138 1 l 63 1 l 63 754 l 185 875 l 615 875 l 738 754 l 738 1 l 663 1 l 663 400 "},"6":{"x_min":69,"x_max":444,"ha":515,"o":"m 444 121 l 321 1 l 191 1 l 69 121 l 69 754 l 191 875 l 444 875 l 444 800 l 221 800 l 144 722 l 144 154 l 221 74 l 291 74 l 369 154 l 369 322 l 291 400 l 168 400 l 168 475 l 321 475 l 444 354 l 444 121 "},"‘":{"x_min":63,"x_max":138,"ha":138,"o":"m 138 600 l 63 600 l 63 875 l 138 875 l 138 600 "},"O":{"x_min":63,"x_max":738,"ha":813,"o":"m 738 121 l 615 1 l 185 1 l 63 121 l 63 754 l 185 875 l 615 875 l 738 754 l 738 121 m 663 154 l 663 722 l 585 800 l 215 800 l 138 722 l 138 154 l 215 75 l 585 75 l 663 154 "},"n":{"x_min":63,"x_max":538,"ha":614,"o":"m 538 1 l 463 1 l 463 422 l 385 500 l 215 500 l 138 422 l 138 1 l 63 1 l 63 454 l 185 575 l 415 575 l 538 454 l 538 1 "},"3":{"x_min":68.984375,"x_max":444,"ha":515,"o":"m 291 400 l 68 400 l 68 475 l 291 475 l 369 554 l 369 722 l 291 800 l 68 800 l 68 875 l 321 875 l 444 754 l 444 522 l 359 437 l 444 353 l 444 121 l 321 1 l 68 1 l 68 75 l 291 75 l 369 154 l 369 322 l 291 400 "},"9":{"x_min":69,"x_max":444,"ha":515,"o":"m 444 121 l 321 1 l 69 1 l 69 75 l 291 75 l 369 154 l 369 722 l 291 800 l 221 800 l 144 722 l 144 554 l 221 475 l 344 475 l 344 400 l 191 400 l 69 522 l 69 754 l 191 875 l 321 875 l 444 754 l 444 121 "},"l":{"x_min":63,"x_max":138,"ha":211,"o":"m 138 1 l 63 1 l 63 875 l 138 875 l 138 1 "},"4":{"x_min":69,"x_max":444,"ha":515,"o":"m 444 1 l 369 1 l 369 400 l 191 400 l 69 522 l 69 875 l 144 875 l 144 554 l 221 475 l 369 475 l 369 875 l 444 875 l 444 1 "},"p":{"x_min":63,"x_max":538,"ha":613,"o":"m 538 121 l 415 1 l 162 1 l 162 75 l 385 75 l 463 154 l 463 422 l 385 500 l 215 500 l 138 422 l 138 -199 l 63 -199 l 63 454 l 185 575 l 415 575 l 538 454 l 538 121 "},"à":{"x_min":56.96875,"x_max":532,"ha":613,"o":"m 532 121 l 409 1 l 179 1 l 56 121 l 56 254 l 179 375 l 432 375 l 432 300 l 209 300 l 131 222 l 131 154 l 209 75 l 379 75 l 457 154 l 457 422 l 379 500 l 156 500 l 156 575 l 409 575 l 532 454 l 532 121 m 429 760 l 375 708 l 224 860 l 275 915 l 429 760 "},"Ü":{"x_min":52,"x_max":727,"ha":814,"o":"m 727 121 l 604 1 l 174 1 l 52 121 l 52 875 l 127 875 l 127 154 l 204 75 l 574 75 l 652 154 l 652 875 l 727 875 l 727 121 m 506 1072 q 557 1050 537 1072 q 580 998 578 1029 q 558 946 580 967 q 506 925 537 925 q 454 945 475 925 q 433 998 433 966 q 453 1049 431 1029 q 506 1072 475 1070 m 266 1072 q 317 1050 297 1072 q 340 998 338 1029 q 318 946 340 967 q 266 925 297 925 q 214 945 235 925 q 193 998 193 966 q 213 1049 191 1029 q 266 1072 234 1070 "},"ó":{"x_min":60,"x_max":535,"ha":613,"o":"m 535 121 l 412 1 l 182 1 l 60 121 l 60 454 l 182 575 l 412 575 l 535 454 l 535 121 m 460 154 l 460 422 l 382 500 l 212 500 l 135 422 l 135 154 l 212 75 l 382 75 l 460 154 m 352 911 l 405 856 l 252 704 l 200 756 l 352 911 "}}}
